<?xml version="1.0" encoding="UTF-8"?><svg id="Layer_1" xmlns="http://www.w3.org/2000/svg" xmlns:xlink="http://www.w3.org/1999/xlink" viewBox="0 0 800 800"><defs><linearGradient id="linear-gradient" x1="850.50539" y1="889.33775" x2="-64.97426" y2="-105.05381" gradientUnits="userSpaceOnUse"><stop offset=".15234" stop-color="#000d3d"/><stop offset=".21953" stop-color="#060f49"/><stop offset=".34113" stop-color="#151668"/><stop offset=".50334" stop-color="#2f229c"/><stop offset=".6979" stop-color="#5332e3"/><stop offset=".75793" stop-color="#5f38fb"/></linearGradient></defs><path d="m778.4826,369.02527c6.97664,10.44056,10.70224,22.72175,10.70224,35.27793,0,16.84506-6.69278,32.99821-18.60141,44.91128-11.90863,11.89976-28.06179,18.59254-44.90241,18.59254-12.56061,0-24.83736-3.71673-35.28236-10.70224-10.44056-6.97664-18.57924-16.89384-23.38704-28.492-4.8078-11.60703-6.06298-24.37166-3.61472-36.69721,2.45269-12.31667,8.49793-23.63098,17.38172-32.51034,8.87936-8.87936,20.19366-14.92459,32.51477-17.38172,12.31667-2.44825,25.08574-1.19308,36.68834,3.61916,11.6026,4.80337,21.5198,12.94204,28.50088,23.3826Zm-28.50088,297.99523c-11.6026-4.81224-24.37166-6.06741-36.68834-3.61916-12.32111,2.45712-23.63541,8.50236-32.51477,17.38172-8.88379,8.87936-14.92903,20.19366-17.38172,32.51034-2.44825,12.32554-1.19308,25.09017,3.61472,36.69721,4.8078,11.59816,12.94648,21.51537,23.38704,28.492,10.445,6.98551,22.72175,10.70224,35.28236,10.70224,16.84062,0,32.99378-6.69278,44.90241-18.59254,11.90863-11.91306,18.60141-28.06622,18.60141-44.91128,0-12.55617-3.7256-24.83736-10.70224-35.27793-6.98107-10.44056-16.89828-18.57924-28.50088-23.3826Zm-113.19973-503.80249h152.40285V10.81515h-152.40285v152.40285Zm-203.50372,503.80249c-11.6026-4.81224-24.37166-6.06741-36.68834-3.61916-12.32111,2.45712-23.63541,8.50236-32.51477,17.38172-8.88379,8.87936-14.92903,20.19366-17.38172,32.51034-2.44825,12.32554-1.19308,25.09017,3.61472,36.69721,4.8078,11.59816,12.94648,21.51537,23.38704,28.492,10.445,6.98551,22.72175,10.70224,35.28236,10.70224,16.84062,0,32.99378-6.69278,44.90241-18.59254,11.90863-11.91306,18.60141-28.06622,18.60141-44.91128,0-12.55617-3.7256-24.83736-10.70224-35.27793-6.98107-10.44056-16.89828-18.57924-28.50088-23.3826Zm-100.50196-186.51341h152.40285v-152.40285h-152.40285v152.40285Zm-4.23341-308.82225h160.86967V10.81515h-160.86967v160.86967ZM11.31079,180.29614h169.3365V10.95964H11.31079v169.3365Zm-.49563,608.8887h152.40285v-152.40285H10.81515v152.40285Zm0-304.44435h160.86967v-160.86967H10.81515v160.86967Z" fill="url(#linear-gradient)"/></svg>